<svg width="300" height="400" xmlns="http://www.w3.org/2000/svg">
 <g id="Layer_1">
  <title>Layer 1</title>
  <path id="svg_1" d="m89.09296,103.92749c-2.29643,12.90738 -8.1623,25.24309 -8.5573,38.55308c0.52556,7.70646 -4.68281,11.84597 -11.81293,11.70022c-7.66866,7.89072 0.94654,20.36114 9.62345,23.54639c8.85527,5.90035 19.84086,-0.69267 28.6128,4.60018c11.64769,9.03824 16.51033,25.06323 12.49189,39.11208c-3.99541,11.59736 16.45685,7.3795 8.76406,-1.89116c-5.94143,-9.06136 11.20003,-6.0655 6.81171,2.53743c-0.82922,6.90576 5.13158,9.14098 2.47883,15.8314c6.91086,3.93359 -0.57931,6.13607 -4.78868,6.87879c-9.85736,4.87776 1.783,-8.73773 -6.02599,-12.76492c-7.15107,1.54274 -2.30549,13.42975 -4.76006,12.05681c-5.05316,-3.9278 -5.04943,-18.61273 -13.53034,-9.03099c-2.81473,-11.8064 2.32099,-24.10229 -1.63527,-35.84015c1.62064,-8.76599 -12.32216,-11.78962 -10.55865,-1.62254c0.70302,15.51711 -4.0438,31.00331 -1.31946,46.44396c3.75218,9.52367 14.24643,13.81396 20.83292,21.16311c5.4093,5.66661 12.42199,11.72513 20.84126,9.94108c9.54922,-0.41089 19.11604,-1.28633 28.62217,0.21863c11.95678,0.37435 21.08429,-9.00733 31.28819,-13.82648c11.99548,-9.45494 10.10682,-26.34345 8.91103,-39.79596c-1.46628,-8.30545 1.75129,-16.61468 1.15167,-24.8424c-8.64809,-10.50368 -15.74345,7.95864 -13.27992,15.89067c-0.0006,9.97789 1.92972,22.83112 -7.65884,29.33081c-7.91315,-0.19807 -15.44418,2.6551 -23.41836,1.16329c-6.47059,3.81427 -16.95136,3.71633 -19.08718,-5.36367c-0.85271,-8.06363 2.82808,-16.51753 -2.17308,-24.04315c4.39412,3.75671 12.0605,-3.24455 7.78796,5.17776c-5.21127,6.85574 4.4127,17.41999 8.03569,7.3008c1.202,-6.78939 -5.19934,-15.80036 5.32312,-14.34577c2.14589,2.39482 -7.32804,19.14652 5.62223,14.91318c9.23284,-2.00755 -1.6426,-16.3843 10.86047,-16.43426c6.05103,-7.07143 4.4218,-20.32593 13.6777,-25.69053c10.32028,-6.93293 26.43372,-1.92763 33.79971,-13.66852c6.27848,-6.00824 3.32385,-22.66111 -7.50425,-17.14321c-13.53164,1.30943 -2.7924,-18.19277 -3.16995,-25.50046c3.18829,-6.36474 -3.87193,-19.76251 -1.44078,-21.18395c4.59373,6.9767 6.23902,15.13672 5.25108,23.29013c-0.0849,6.91436 -3.03889,25.65322 6.64492,14.10159c3.27823,-8.05047 2.32479,-17.16908 4.66036,-25.54466c4.50471,-18.08267 -3.56106,-36.17539 -12.55289,-51.4913c-7.65819,-8.24528 -17.38047,-14.81812 -26.51044,-21.28963c-15.35693,-5.73329 -32.31335,-6.76038 -48.53262,-5.32348c-14.34659,2.46847 -29.51806,5.07093 -40.94694,14.7808c-11.13842,6.51478 -21.80581,15.1674 -26.20928,27.68548c-3.83744,10.08457 -10.5573,20.35446 -7.50319,31.55696c2.92085,9.33854 1.37169,19.03694 1.84461,28.58188c4.97917,10.90892 9.68013,-5.58216 9.21415,-11.03686c0.27565,-10.34387 5.77337,-19.4997 9.82441,-28.68243l-0.00001,-0.00002zm91.45395,22.19141c10.23933,0.72833 23.20388,6.38839 23.48331,18.18851c1.55694,11.84173 -8.08224,23.32016 -20.43511,22.15889c-11.22036,-0.91488 -18.39643,-10.53568 -17.65137,-21.3522c-3.75655,-7.75556 2.0893,-16.06187 9.93497,-17.84474c1.52143,-0.50784 3.08529,-0.88796 4.6682,-1.15047l0,0.00001zm-69.09826,1.00861c11.87838,-2.09697 25.39296,5.21766 25.43262,18.26936c1.11562,12.61754 -12.37949,15.08957 -21.58527,18.25045c-6.36998,4.08278 -12.98687,0.28141 -18.27983,-3.83213c-6.86734,-7.13519 -4.84887,-21.51366 2.40235,-28.02686c3.51625,-2.5832 7.86908,-3.59866 12.03013,-4.66082zm40.64607,33.28616c5.75047,7.84562 12.65394,19.80967 5.21735,28.71415c-6.60166,5.25554 -7.43396,-7.47545 -14.36303,-1.47968c-6.50028,-5.65109 -0.50501,-17.15049 4.05597,-22.8913c1.50327,-1.65314 3.22352,-3.10853 5.08972,-4.34317z" stroke="#000" fill="#444444"/>
  <text font-weight="bold" transform="matrix(1.59298 0 0 1.75558 -87.1252 -233.591)" stroke="#000" xml:space="preserve" text-anchor="start" font-family="'Cabin'" font-size="24" stroke-width="0" id="svg_3" y="324" x="94" fill="#444444">DIAMOND</text>
 </g>
</svg>